<svg width="141" height="37" viewBox="0 0 141 37" fill="none" xmlns="http://www.w3.org/2000/svg">
<path d="M38.766 18.52C39.498 18.676 40.086 19.042 40.53 19.618C40.974 20.182 41.196 20.83 41.196 21.562C41.196 22.618 40.824 23.458 40.08 24.082C39.348 24.694 38.322 25 37.002 25H31.116V12.364H36.804C38.088 12.364 39.09 12.658 39.81 13.246C40.542 13.834 40.908 14.632 40.908 15.64C40.908 16.384 40.71 17.002 40.314 17.494C39.93 17.986 39.414 18.328 38.766 18.52ZM34.194 17.476H36.21C36.714 17.476 37.098 17.368 37.362 17.152C37.638 16.924 37.776 16.594 37.776 16.162C37.776 15.73 37.638 15.4 37.362 15.172C37.098 14.944 36.714 14.83 36.21 14.83H34.194V17.476ZM36.462 22.516C36.978 22.516 37.374 22.402 37.65 22.174C37.938 21.934 38.082 21.592 38.082 21.148C38.082 20.704 37.932 20.356 37.632 20.104C37.344 19.852 36.942 19.726 36.426 19.726H34.194V22.516H36.462ZM46.0592 16.63C46.4192 16.078 46.8692 15.646 47.4092 15.334C47.9492 15.01 48.5492 14.848 49.2092 14.848V18.106H48.3632C47.5952 18.106 47.0192 18.274 46.6352 18.61C46.2512 18.934 46.0592 19.51 46.0592 20.338V25H42.9812V14.956H46.0592V16.63ZM60.5985 14.956V25H57.5205V23.632C57.2085 24.076 56.7825 24.436 56.2425 24.712C55.7145 24.976 55.1265 25.108 54.4785 25.108C53.7105 25.108 53.0325 24.94 52.4445 24.604C51.8565 24.256 51.4005 23.758 51.0765 23.11C50.7525 22.462 50.5905 21.7 50.5905 20.824V14.956H53.6505V20.41C53.6505 21.082 53.8245 21.604 54.1725 21.976C54.5205 22.348 54.9885 22.534 55.5765 22.534C56.1765 22.534 56.6505 22.348 56.9985 21.976C57.3465 21.604 57.5205 21.082 57.5205 20.41V14.956H60.5985ZM66.8954 25.144C66.0194 25.144 65.2394 24.994 64.5554 24.694C63.8714 24.394 63.3314 23.986 62.9354 23.47C62.5394 22.942 62.3174 22.354 62.2694 21.706H65.3114C65.3474 22.054 65.5094 22.336 65.7974 22.552C66.0854 22.768 66.4394 22.876 66.8594 22.876C67.2434 22.876 67.5374 22.804 67.7414 22.66C67.9574 22.504 68.0654 22.306 68.0654 22.066C68.0654 21.778 67.9154 21.568 67.6154 21.436C67.3154 21.292 66.8294 21.136 66.1574 20.968C65.4374 20.8 64.8374 20.626 64.3574 20.446C63.8774 20.254 63.4634 19.96 63.1154 19.564C62.7674 19.156 62.5934 18.61 62.5934 17.926C62.5934 17.35 62.7494 16.828 63.0614 16.36C63.3854 15.88 63.8534 15.502 64.4654 15.226C65.0894 14.95 65.8274 14.812 66.6794 14.812C67.9394 14.812 68.9294 15.124 69.6494 15.748C70.3814 16.372 70.8014 17.2 70.9094 18.232H68.0654C68.0174 17.884 67.8614 17.608 67.5974 17.404C67.3454 17.2 67.0094 17.098 66.5894 17.098C66.2294 17.098 65.9534 17.17 65.7614 17.314C65.5694 17.446 65.4734 17.632 65.4734 17.872C65.4734 18.16 65.6234 18.376 65.9234 18.52C66.2354 18.664 66.7154 18.808 67.3634 18.952C68.1074 19.144 68.7134 19.336 69.1814 19.528C69.6494 19.708 70.0574 20.008 70.4054 20.428C70.7654 20.836 70.9514 21.388 70.9634 22.084C70.9634 22.672 70.7954 23.2 70.4594 23.668C70.1354 24.124 69.6614 24.484 69.0374 24.748C68.4254 25.012 67.7114 25.144 66.8954 25.144ZM72.2345 19.978C72.2345 18.934 72.4445 18.022 72.8645 17.242C73.2965 16.462 73.8905 15.862 74.6465 15.442C75.4145 15.022 76.2905 14.812 77.2745 14.812C78.5345 14.812 79.5845 15.142 80.4245 15.802C81.2765 16.462 81.8345 17.392 82.0985 18.592H78.8225C78.5465 17.824 78.0125 17.44 77.2205 17.44C76.6565 17.44 76.2065 17.662 75.8705 18.106C75.5345 18.538 75.3665 19.162 75.3665 19.978C75.3665 20.794 75.5345 21.424 75.8705 21.868C76.2065 22.3 76.6565 22.516 77.2205 22.516C78.0125 22.516 78.5465 22.132 78.8225 21.364H82.0985C81.8345 22.54 81.2765 23.464 80.4245 24.136C79.5725 24.808 78.5225 25.144 77.2745 25.144C76.2905 25.144 75.4145 24.934 74.6465 24.514C73.8905 24.094 73.2965 23.494 72.8645 22.714C72.4445 21.934 72.2345 21.022 72.2345 19.978ZM89.9189 14.848C91.0709 14.848 91.9949 15.232 92.6909 16C93.3869 16.756 93.7349 17.8 93.7349 19.132V25H90.6749V19.546C90.6749 18.874 90.5009 18.352 90.1529 17.98C89.8049 17.608 89.3369 17.422 88.7489 17.422C88.1609 17.422 87.6929 17.608 87.3449 17.98C86.9969 18.352 86.8229 18.874 86.8229 19.546V25H83.7449V11.68H86.8229V16.306C87.1349 15.862 87.5609 15.508 88.1009 15.244C88.6409 14.98 89.2469 14.848 89.9189 14.848ZM105.342 19.816C105.342 20.104 105.324 20.404 105.288 20.716H98.3218C98.3698 21.34 98.5678 21.82 98.9158 22.156C99.2758 22.48 99.7138 22.642 100.23 22.642C100.998 22.642 101.532 22.318 101.832 21.67H105.108C104.94 22.33 104.634 22.924 104.19 23.452C103.758 23.98 103.212 24.394 102.552 24.694C101.892 24.994 101.154 25.144 100.338 25.144C99.3538 25.144 98.4778 24.934 97.7098 24.514C96.9418 24.094 96.3418 23.494 95.9098 22.714C95.4778 21.934 95.2618 21.022 95.2618 19.978C95.2618 18.934 95.4718 18.022 95.8918 17.242C96.3238 16.462 96.9238 15.862 97.6918 15.442C98.4598 15.022 99.3418 14.812 100.338 14.812C101.31 14.812 102.174 15.016 102.93 15.424C103.686 15.832 104.274 16.414 104.694 17.17C105.126 17.926 105.342 18.808 105.342 19.816ZM102.192 19.006C102.192 18.478 102.012 18.058 101.652 17.746C101.292 17.434 100.842 17.278 100.302 17.278C99.7858 17.278 99.3478 17.428 98.9878 17.728C98.6398 18.028 98.4238 18.454 98.3398 19.006H102.192ZM112.564 22.39V25H110.998C109.882 25 109.012 24.73 108.388 24.19C107.764 23.638 107.452 22.744 107.452 21.508V17.512H106.228V14.956H107.452V12.508H110.53V14.956H112.546V17.512H110.53V21.544C110.53 21.844 110.602 22.06 110.746 22.192C110.89 22.324 111.13 22.39 111.466 22.39H112.564ZM119.876 22.39V25H118.31C117.194 25 116.324 24.73 115.7 24.19C115.076 23.638 114.764 22.744 114.764 21.508V17.512H113.54V14.956H114.764V12.508H117.842V14.956H119.858V17.512H117.842V21.544C117.842 21.844 117.914 22.06 118.058 22.192C118.202 22.324 118.442 22.39 118.778 22.39H119.876ZM120.979 19.96C120.979 18.928 121.171 18.022 121.555 17.242C121.951 16.462 122.485 15.862 123.157 15.442C123.829 15.022 124.579 14.812 125.407 14.812C126.115 14.812 126.733 14.956 127.261 15.244C127.801 15.532 128.215 15.91 128.503 16.378V14.956H131.581V25H128.503V23.578C128.203 24.046 127.783 24.424 127.243 24.712C126.715 25 126.097 25.144 125.389 25.144C124.573 25.144 123.829 24.934 123.157 24.514C122.485 24.082 121.951 23.476 121.555 22.696C121.171 21.904 120.979 20.992 120.979 19.96ZM128.503 19.978C128.503 19.21 128.287 18.604 127.855 18.16C127.435 17.716 126.919 17.494 126.307 17.494C125.695 17.494 125.173 17.716 124.741 18.16C124.321 18.592 124.111 19.192 124.111 19.96C124.111 20.728 124.321 21.34 124.741 21.796C125.173 22.24 125.695 22.462 126.307 22.462C126.919 22.462 127.435 22.24 127.855 21.796C128.287 21.352 128.503 20.746 128.503 19.978Z" fill="#363636"/>
<path fill-rule="evenodd" clip-rule="evenodd" d="M21.9885 18.5C20.1348 22.4022 16.1575 25.1 11.55 25.1C6.94255 25.1 2.96521 22.4022 1.11149 18.5C0.39879 20.0003 0 21.6786 0 23.45C0 29.8289 5.17111 35 11.55 35C17.9289 35 23.1 29.8289 23.1 23.45C23.1 21.6786 22.7012 20.0003 21.9885 18.5Z" fill="url(#paint0_linear)"/>
<path fill-rule="evenodd" clip-rule="evenodd" d="M21.9885 18.5C22.7012 16.9997 23.1 15.3214 23.1 13.55C23.1 7.17111 17.9289 2 11.55 2C5.17111 2 0 7.17111 0 13.55C0 15.3214 0.398791 16.9997 1.11149 18.5C2.96521 14.5978 6.94255 11.9 11.55 11.9C16.1575 11.9 20.1348 14.5978 21.9885 18.5Z" fill="url(#paint1_linear)"/>
<defs>
<linearGradient id="paint0_linear" x1="11.55" y1="18.5" x2="11.55" y2="35" gradientUnits="userSpaceOnUse">
<stop stop-color="#A941DA"/>
<stop offset="1" stop-color="#7E30CC"/>
</linearGradient>
<linearGradient id="paint1_linear" x1="11.55" y1="2" x2="11.55" y2="18.5" gradientUnits="userSpaceOnUse">
<stop stop-color="#A941DA"/>
<stop offset="1" stop-color="#7E30CC"/>
</linearGradient>
</defs>
</svg>
